<?xml version="1.0" encoding="UTF-8" standalone="no"?>
<!-- Created with Inkscape (http://www.inkscape.org/) -->

<svg
   xmlns:dc="http://purl.org/dc/elements/1.1/"
   xmlns:cc="http://creativecommons.org/ns#"
   xmlns:rdf="http://www.w3.org/1999/02/22-rdf-syntax-ns#"
   xmlns:svg="http://www.w3.org/2000/svg"
   xmlns="http://www.w3.org/2000/svg"
   xmlns:xlink="http://www.w3.org/1999/xlink"
   version="1.1"
   width="256"
   height="256"
   id="svg2">
  <defs
     id="defs4">
  </defs>
  <metadata
     id="metadata7">
    <rdf:RDF>
      <cc:Work
         rdf:about="">
        <dc:format>image/svg+xml</dc:format>
        <dc:type
           rdf:resource="http://purl.org/dc/dcmitype/StillImage" />
        <dc:title></dc:title>
      </cc:Work>
    </rdf:RDF>
  </metadata>
  <g
     transform="translate(0,-796.36218)"
     id="layer1">
    <path
       d="m 256.42856,127.99473 -64.21165,111.21783 -128.423293,0 L -0.41802979,127.99473 63.793617,16.776893 l 128.423293,0 z"
       transform="matrix(0.8660254,-0.5,0.5,0.8660254,-46.84791,877.51285)"
       id="path3025"
       style="fill:#68a913;fill-opacity:1;stroke:none" />
    <path
       d="m 165.24565,889.92615 c -21.6511,-5.91082 -46.84527,3.39379 -63.55455,18.37738 -14.553833,13.05075 -28.569381,37.18885 -26.380443,56.6142 2.303402,20.44116 22.178059,37.52007 42.090143,42.68297 19.93205,5.168 41.96038,-3.3895 57.50343,-16.89535 15.24313,-13.24528 29.25598,-33.82352 27.56608,-53.94651 -1.71114,-20.37583 -17.49898,-41.44752 -37.22466,-46.83269 z"
       id="path3795"
       style="fill:#a7d13b;fill-opacity:1;stroke:none" />
    <path
       d="m 53.9296,884.21319 c -7.304081,-1.99403 -15.803429,1.14491 -21.440369,6.19968 -4.90979,4.40272 -9.637988,12.5458 -8.899542,19.09902 0.777062,6.8959 7.481852,12.65754 14.199268,14.39925 6.724154,1.74347 14.155492,-1.14344 19.399,-5.6997 5.142327,-4.46835 9.869617,-11.41049 9.299522,-18.19906 -0.57726,-6.87387 -5.903347,-13.98248 -12.557879,-15.79919 z"
       id="path3795-9"
       style="fill:#a7d13b;fill-opacity:1;stroke:none" />
    <g
       id="g3316"
       style="fill:#a7d13b;fill-opacity:1">
      <path
         d="m 140.53558,811.21779 c -12.14934,-3.31681 -26.28686,1.9044 -35.66314,10.31232 -8.166769,7.32333 -16.031485,20.86824 -14.80318,31.76862 1.292536,11.4704 12.44505,21.0541 23.61855,23.95121 11.18472,2.90002 23.54574,-1.90196 32.26761,-9.48069 8.55356,-7.43248 16.41677,-18.9798 15.46849,-30.27166 -0.96019,-11.43374 -9.81942,-23.25796 -20.88833,-26.2798 z"
         id="path3795-4"
         style="fill:#a7d13b;fill-opacity:1;stroke:none" />
    </g>
  </g>
</svg>
